<svg width="8" height="16" viewBox="0 0 8 16" fill="none" xmlns="http://www.w3.org/2000/svg">
<path d="M2.23555 8.94507C2.1805 8.94507 0.969341 8.94507 0.418815 8.94507C0.125202 8.94507 0.0334473 8.83497 0.0334473 8.5597C0.0334473 7.82567 0.0334473 7.07329 0.0334473 6.33925C0.0334473 6.04564 0.143552 5.95389 0.418815 5.95389H2.23555C2.23555 5.89884 2.23555 4.83449 2.23555 4.33902C2.23555 3.60498 2.364 2.90765 2.73102 2.26537C3.11639 1.60475 3.66692 1.16433 4.36425 0.907414C4.82302 0.742257 5.28179 0.668854 5.77726 0.668854H7.57565C7.83256 0.668854 7.94266 0.778959 7.94266 1.03587V3.12786C7.94266 3.38477 7.83256 3.49488 7.57565 3.49488C7.08017 3.49488 6.5847 3.49488 6.08923 3.51323C5.59375 3.51323 5.33684 3.75179 5.33684 4.26561C5.31849 4.81614 5.33684 5.34831 5.33684 5.91719H7.46554C7.75915 5.91719 7.86926 6.02729 7.86926 6.3209V8.54135C7.86926 8.83497 7.7775 8.92672 7.46554 8.92672C6.80491 8.92672 5.39189 8.92672 5.33684 8.92672V14.9091C5.33684 15.221 5.24509 15.3312 4.91477 15.3312C4.14404 15.3312 3.39165 15.3312 2.62092 15.3312C2.34565 15.3312 2.23555 15.221 2.23555 14.9458C2.23555 13.019 2.23555 9.00012 2.23555 8.94507V8.94507Z" fill="#405365"/>
</svg>
