<svg width="60" height="60" viewBox="0 0 60 60" fill="none" xmlns="http://www.w3.org/2000/svg">
<rect width="60" height="60" rx="30" fill="#E6E8EB"/>
<path d="M22.927 29.5957H28.552M34.177 37.4707H31.927C31.0319 37.4707 30.1735 37.1151 29.5405 36.4822C28.9076 35.8493 28.552 34.9908 28.552 34.0957V25.0957C28.552 24.2006 28.9076 23.3422 29.5405 22.7092C30.1735 22.0763 31.0319 21.7207 31.927 21.7207H34.177M16.177 25.6582H21.802C22.4233 25.6582 22.927 26.1619 22.927 26.7832V32.4082C22.927 33.0295 22.4233 33.5332 21.802 33.5332H16.177C15.5557 33.5332 15.052 33.0295 15.052 32.4082V26.7832C15.052 26.1619 15.5557 25.6582 16.177 25.6582ZM35.302 17.2207H42.052C42.6733 17.2207 43.177 17.7244 43.177 18.3457V25.0957C43.177 25.717 42.6733 26.2207 42.052 26.2207H35.302C34.6807 26.2207 34.177 25.717 34.177 25.0957V18.3457C34.177 17.7244 34.6807 17.2207 35.302 17.2207ZM35.302 32.9707H42.052C42.6733 32.9707 43.177 33.4744 43.177 34.0957V40.8457C43.177 41.467 42.6733 41.9707 42.052 41.9707H35.302C34.6807 41.9707 34.177 41.467 34.177 40.8457V34.0957C34.177 33.4744 34.6807 32.9707 35.302 32.9707Z" stroke="#001932" stroke-width="2" stroke-linecap="round" stroke-linejoin="round"/>
</svg>
