<svg width="60" height="60" viewBox="0 0 60 60" fill="none" xmlns="http://www.w3.org/2000/svg">
<rect width="60" height="60" rx="30" fill="#E6E8EB"/>
<path d="M37.3125 33.375V41.25M41.25 37.3125H33.375M27.75 22.6875C27.75 25.4834 25.4834 27.75 22.6875 27.75C19.8916 27.75 17.625 25.4834 17.625 22.6875C17.625 19.8916 19.8916 17.625 22.6875 17.625C25.4834 17.625 27.75 19.8916 27.75 22.6875ZM42.375 22.6875C42.375 25.4834 40.1084 27.75 37.3125 27.75C34.5166 27.75 32.25 25.4834 32.25 22.6875C32.25 19.8916 34.5166 17.625 37.3125 17.625C40.1084 17.625 42.375 19.8916 42.375 22.6875ZM27.75 37.3125C27.75 40.1084 25.4834 42.375 22.6875 42.375C19.8916 42.375 17.625 40.1084 17.625 37.3125C17.625 34.5166 19.8916 32.25 22.6875 32.25C25.4834 32.25 27.75 34.5166 27.75 37.3125Z" stroke="#001932" stroke-width="2" stroke-linecap="round" stroke-linejoin="round"/>
</svg>
