<svg width="18" height="18" viewBox="0 0 18 18" fill="none" xmlns="http://www.w3.org/2000/svg">
<path fill-rule="evenodd" clip-rule="evenodd" d="M0 8C0 4.22876 0 2.34315 1.17157 1.17157C2.34315 0 4.22876 0 8 0H10C13.7712 0 15.6569 0 16.8284 1.17157C18 2.34315 18 4.22876 18 8V10C18 13.7712 18 15.6569 16.8284 16.8284C15.6569 18 13.7712 18 10 18H8C4.22876 18 2.34315 18 1.17157 16.8284C0 15.6569 0 13.7712 0 10V8ZM15 4.5C15 5.32843 14.3284 6 13.5 6C12.6716 6 12 5.32843 12 4.5C12 3.67157 12.6716 3 13.5 3C14.3284 3 15 3.67157 15 4.5ZM11 10C11 11.1046 10.1046 12 9 12C7.89543 12 7 11.1046 7 10C7 8.89543 7.89543 8 9 8C10.1046 8 11 8.89543 11 10ZM13 10C13 12.2091 11.2091 14 9 14C6.79086 14 5 12.2091 5 10C5 7.79086 6.79086 6 9 6C11.2091 6 13 7.79086 13 10Z" fill="#405365"/>
</svg>
