<svg width="18" height="14" viewBox="0 0 18 14" fill="none" xmlns="http://www.w3.org/2000/svg">
<path fill-rule="evenodd" clip-rule="evenodd" d="M0.585786 0.585786C0 1.17157 0 2.11438 0 4V10C0 11.8856 0 12.8284 0.585786 13.4142C1.17157 14 2.11438 14 4 14H14C15.8856 14 16.8284 14 17.4142 13.4142C18 12.8284 18 11.8856 18 10V4C18 2.11438 18 1.17157 17.4142 0.585786C16.8284 0 15.8856 0 14 0H4C2.11438 0 1.17157 0 0.585786 0.585786ZM3.5547 3.16795C3.09517 2.8616 2.4743 2.98577 2.16795 3.4453C1.8616 3.90483 1.98577 4.5257 2.4453 4.83205L7.8906 8.46225C8.5624 8.91012 9.4376 8.91012 10.1094 8.46225L15.5547 4.83205C16.0142 4.5257 16.1384 3.90483 15.8321 3.4453C15.5257 2.98577 14.9048 2.8616 14.4453 3.16795L9 6.79815L3.5547 3.16795Z" fill="#F15A24"/>
</svg>
