<svg width="18" height="16" viewBox="0 0 18 16" fill="none" xmlns="http://www.w3.org/2000/svg">
<path d="M18 2.27577C17.3306 2.57692 16.6174 2.77654 15.8737 2.87346C16.6387 2.405 17.2226 1.66885 17.4971 0.781538C16.7839 1.21769 15.9964 1.52577 15.1571 1.69769C14.4799 0.958077 13.5146 0.5 12.4616 0.5C10.4186 0.5 8.77387 2.20077 8.77387 4.28577C8.77387 4.58577 8.79862 4.87423 8.85938 5.14885C5.7915 4.99538 3.07688 3.48731 1.25325 1.19C0.934875 1.75654 0.748125 2.405 0.748125 3.10308C0.748125 4.41385 1.40625 5.57577 2.38725 6.24846C1.79437 6.23692 1.21275 6.06038 0.72 5.78231C0.72 5.79385 0.72 5.80885 0.72 5.82385C0.72 7.66308 1.99912 9.19077 3.6765 9.54269C3.37612 9.62692 3.04875 9.66731 2.709 9.66731C2.47275 9.66731 2.23425 9.65346 2.01037 9.60269C2.4885 11.1015 3.84525 12.2035 5.4585 12.2392C4.203 13.2465 2.60888 13.8535 0.883125 13.8535C0.5805 13.8535 0.29025 13.8396 0 13.8015C1.63462 14.8827 3.57188 15.5 5.661 15.5C12.4515 15.5 16.164 9.73077 16.164 4.73C16.164 4.56269 16.1584 4.40115 16.1505 4.24077C16.8829 3.70769 17.4982 3.04192 18 2.27577Z" fill="#405365"/>
</svg>
