<svg width="85" height="48" viewBox="0 0 85 48" fill="none" xmlns="http://www.w3.org/2000/svg">
<path d="M0 26.3507V30.0889C29.1811 28.3689 7.49183 27.4745 0 26.3507Z" fill="#403F42"/>
<path d="M0 32.5429V36.2122L0.254352 36.281C22.4755 34.2399 16.0936 33.5061 0 32.5429Z" fill="#403F42"/>
<path d="M0 0V12.086C18.2902 11.4668 18.3827 10.4348 8.90233 9.19637L10.6134 7.13235C22.3136 8.92117 21.5737 11.8337 13.1569 13.3015C15.9779 14.2876 25.967 16.0994 13.8969 19.7C15.8623 20.2274 26.9382 22.9565 13.1569 25.3875C15.3305 26.3736 26.9382 27.7726 13.6425 31.3043C17.0878 31.8548 25.9208 33.7353 14.2437 37.4735C18.6602 37.9322 19.1458 38.0927 20.3482 40.1338V48H25.7127V0H0Z" fill="#403F42"/>
<path d="M0 20.6861V24.4243C5.48013 23.3464 30.5454 22.9107 0 20.6861Z" fill="#403F42"/>
<path d="M0 14.2876V18.2551C17.1572 17.3377 22.9611 16.1681 0 14.2876Z" fill="#403F42"/>
<path d="M32.0254 12.7969H29.0888V12.2236H35.5632V12.7969H32.6266V20.5485H32.0023V12.7969H32.0254Z" fill="#403F42"/>
<path d="M37.1587 12.2236H37.783V16.0764H43.1475V12.2236H43.7719V20.5485H43.1475V16.6497H37.783V20.5485H37.1587V12.2236Z" fill="#403F42"/>
<path d="M45.9685 12.2236H51.9343V12.7969H46.5929V16.0764H51.4024V16.6497H46.5929V19.9981H52.0036V20.5714H45.9685V12.2236Z" fill="#403F42"/>
<path d="M29.5282 25.3416H32.3261L33.9909 30.7997L35.8176 25.3186H38.0837L39.9104 30.7997L41.5752 25.3416H44.3037L41.1359 34.859H38.8467L36.9506 29.4237L35.0314 34.859H32.7423L29.5282 25.3416Z" fill="#403F42"/>
<path d="M44.3038 29.9741V29.9283C44.3038 27.0845 46.3386 24.837 49.2521 24.837C52.628 24.837 54.1773 27.2909 54.1773 30.1576C54.1773 30.364 54.1773 30.6163 54.1541 30.8686H47.6103C47.8878 31.9235 48.6509 32.4739 49.7377 32.4739C50.5701 32.4739 51.1944 32.1758 51.9112 31.4878L53.8073 33.0473C52.8592 34.2398 51.5181 35.0195 49.5758 35.0195C46.4773 35.0195 44.3038 32.9785 44.3038 29.9741ZM50.9632 29.1485C50.8475 28.0707 50.177 27.3827 49.2521 27.3827C48.3503 27.3827 47.726 28.0707 47.541 29.1485H50.9632Z" fill="#403F42"/>
<path d="M56.0501 25.3416H60.929C62.1314 25.3416 62.9638 25.6397 63.5188 26.1672C63.8887 26.5571 64.12 27.0616 64.12 27.7037V27.7267C64.12 28.8275 63.4956 29.4696 62.6632 29.8366C63.8194 30.2035 64.5593 30.8686 64.5593 32.1529V32.1758C64.5593 33.8041 63.2182 34.7673 60.9521 34.7673H56.0501V25.3416ZM61.5302 28.2542C61.5302 27.7267 61.114 27.4515 60.3278 27.4515H58.5936V29.1027H60.2584C61.0677 29.1027 61.5302 28.8275 61.5302 28.2771V28.2542ZM60.6284 30.9374H58.6167V32.6803H60.6515C61.4608 32.6803 61.9233 32.3593 61.9233 31.8089V31.7859C61.9233 31.2814 61.5071 30.9374 60.6284 30.9374Z" fill="#403F42"/>
<path d="M66.594 25.3416H71.4729C72.6753 25.3416 73.5077 25.6397 74.0627 26.1672C74.4326 26.5571 74.6639 27.0616 74.6639 27.7037V27.7267C74.6639 28.8275 74.0396 29.4696 73.2071 29.8366C74.3633 30.2035 75.1032 30.8686 75.1032 32.1529V32.1758C75.1032 33.8041 73.7621 34.7673 71.496 34.7673H66.594V25.3416ZM72.0741 28.2542C72.0741 27.7267 71.6579 27.4515 70.8717 27.4515H69.1375V29.1027H70.8024C71.6117 29.1027 72.0741 28.8275 72.0741 28.2771V28.2542ZM71.1723 30.9374H69.1606V32.6803H71.1954C72.0047 32.6803 72.4672 32.3593 72.4672 31.8089V31.7859C72.4672 31.2814 72.051 30.9374 71.1723 30.9374Z" fill="#403F42"/>
<path d="M78.7337 31.2585L75.1034 25.3416H78.1094L80.0748 28.7816L82.0403 25.3416H85L81.3928 31.2126V34.7902H78.7568V31.2585H78.7337Z" fill="#403F42"/>
<path d="M33.8289 38.8036H34.4301L38.3379 47.1973H37.6442L36.5805 44.8581H31.6322L30.5685 47.1973H29.9211L33.8289 38.8036ZM36.3262 44.3077L34.1295 39.4916L31.9097 44.3077H36.3262Z" fill="#403F42"/>
<path d="M38.2918 38.8723H38.9855L41.6215 46.2798L44.0726 38.8493H44.5581L47.0092 46.2798L49.6452 38.8723H50.2926L47.2404 47.266H46.7317L44.2807 40.0419L41.8528 47.266H41.3441L38.2918 38.8723Z" fill="#403F42"/>
<path d="M54.3852 38.8265H54.9864L58.8942 47.2202H58.2005L57.1369 44.881H52.1886L51.1249 47.2202H50.4775L54.3852 38.8265ZM56.8825 44.3077L54.6858 39.4916L52.466 44.3077H56.8825Z" fill="#403F42"/>
<path d="M60.3278 38.8724H63.8656C64.9061 38.8724 65.7154 39.1935 66.2241 39.698C66.6172 40.0879 66.8484 40.6612 66.8484 41.2346V41.2575C66.8484 42.6565 65.8079 43.4362 64.3974 43.6426L67.1721 47.1973H66.3859L63.7037 43.7573H60.9521V47.1973H60.3278V38.8724ZM63.7962 43.1839C65.2067 43.1839 66.2472 42.473 66.2472 41.2804V41.2575C66.2472 40.1338 65.3685 39.4458 63.8424 39.4458H60.9752V43.1839H63.7962Z" fill="#403F42"/>
<path d="M68.7216 38.8724H71.5194C74.1554 38.8724 75.9822 40.6612 75.9822 43.0234V43.0463C75.9822 45.3855 74.1554 47.2202 71.5194 47.2202H68.7216V38.8724ZM69.3459 46.624H71.5194C73.8548 46.624 75.3347 45.0415 75.3347 43.0463V43.0234C75.3347 41.0511 73.8548 39.4228 71.5194 39.4228H69.3459V46.624Z" fill="#403F42"/>
<path d="M77.1149 45.9818L77.5311 45.5231C78.4561 46.3717 79.3116 46.7615 80.5371 46.7615C81.7858 46.7615 82.6644 46.0506 82.6644 45.1103V45.0874C82.6644 44.2159 82.202 43.6884 80.2828 43.3215C78.2711 42.9087 77.4618 42.2436 77.4618 40.9823V40.9593C77.4618 39.7209 78.5948 38.7807 80.1672 38.7807C81.3927 38.7807 82.202 39.1247 83.0344 39.7897L82.6413 40.2713C81.8551 39.5833 81.069 39.3311 80.144 39.3311C78.9185 39.3311 78.0861 40.042 78.0861 40.8905V40.9135C78.0861 41.785 78.5485 42.3354 80.5371 42.7252C82.4794 43.1151 83.2888 43.8031 83.2888 45.0186V45.0415C83.2888 46.3946 82.1326 47.312 80.514 47.312C79.1729 47.312 78.1323 46.8762 77.1149 45.9818Z" fill="#403F42"/>
</svg>
