<svg width="93" height="48" viewBox="0 0 93 48" fill="none" xmlns="http://www.w3.org/2000/svg">
<path d="M77.0053 25.905H65.6277V29.3843H77.0053V25.905Z" fill="#403F42"/>
<path d="M86.734 17.787H85.4149V16.2959C85.4149 14.142 84.0957 11.9882 82.2819 10.8284C81.1277 10.3314 80.1383 10 79.3138 10H60.516C59.1968 10 57.8777 10.497 56.7234 11.3254C56.0638 11.8225 55.4043 12.6509 54.9096 13.3136L52.2713 18.284C52.2713 18.284 49.3032 12.4852 48.4787 11.6568C47.3245 10.6627 46.0053 10.1657 44.5213 10.1657C43.5319 10.1657 42.7074 10.497 41.883 10.6627C40.234 11.4911 39.4096 12.9822 38.5851 14.6391L36.6064 18.284L34.2979 13.645C33.8032 12.3195 32.6489 11.4911 31.3298 10.6627C30.5053 10.3314 29.516 10.1657 28.5266 10.1657H13.6862C12.6968 10.1657 11.7074 10.497 10.7181 10.8284C8.73936 11.9882 7.58511 13.9763 7.58511 16.2959V17.9527H6.26596C2.80319 17.787 0 20.4379 0 23.9172C0 27.3964 2.80319 30.213 6.26596 30.213H7.58511V31.5385C7.58511 35.0178 10.3883 37.8343 13.8511 37.8343C17.3138 37.8343 20.117 35.0178 20.117 31.5385V30.213H25.5585C26.8777 30.213 27.867 29.8817 28.6915 29.2189L31 33.858C31.1649 34.1893 31.3298 34.355 31.4947 34.6864C32.6489 36.5089 34.6277 37.6686 36.7713 37.6686C37.7606 37.6686 38.5851 37.3373 39.4096 37.1716C40.8936 36.5089 42.2128 35.1834 42.8723 33.6923L44.6862 29.8817L46.8298 34.1894C46.9947 34.5207 47.1596 34.6864 47.3245 35.0178C48.4787 36.8402 50.4574 38 52.6011 38C53.5904 38 54.4149 37.6686 55.2394 37.503C56.5585 36.8402 57.7128 35.5148 58.2074 34.1894C59.1968 36.3432 61.3404 38 63.8138 38H79.1489C82.6117 38 85.4149 35.3491 85.4149 31.8698V30.5444H86.734C90.1968 30.5444 93 27.7278 93 24.2485C93 20.6035 90.0319 17.787 86.734 17.787ZM86.734 25.9053H81.2925V31.3728C81.2925 32.5325 80.3032 33.5266 79.1489 33.5266C78.8191 33.5266 78.6543 33.5266 78.4894 33.5266C75.5213 33.5266 64.1436 33.5266 63.6489 33.5266C62.4947 33.5266 61.5053 32.5325 61.5053 31.3728V23.9172C61.5053 22.7574 62.4947 21.929 63.6489 21.929H77.0053V18.1183H61.5053L54.4149 31.8698C54.25 32.3669 53.9202 33.0296 53.2606 33.1953C53.2606 33.1953 53.0957 33.1953 53.0957 33.3609H52.9308C52.9308 33.3609 52.9309 33.3609 52.766 33.3609C52.766 33.3609 52.766 33.3609 52.6011 33.3609H52.4362C52.2713 33.3609 52.2713 33.3609 52.1064 33.3609H51.7766C51.6117 33.3609 51.6117 33.3609 51.4468 33.1953C51.4468 33.1953 51.2819 33.1953 51.2819 33.0296L51.117 32.8639V32.6982C50.9521 32.5325 50.9521 32.3669 50.9521 32.2012L45.1809 20.7692L38.75 31.8698C38.4202 32.3669 38.0904 33.0296 37.4309 33.1953C37.4309 33.1953 37.266 33.1953 37.266 33.3609H37.1011C37.1011 33.3609 37.1011 33.3609 36.9362 33.3609H36.7713C36.7713 33.3609 36.7713 33.3609 36.6064 33.3609H36.4415C36.2766 33.3609 36.2766 33.3609 36.1117 33.3609H35.7819C35.617 33.3609 35.617 33.3609 35.617 33.1953C35.617 33.1953 35.4521 33.1953 35.4521 33.0296L35.2872 32.8639H35.4521L35.2872 32.6982C35.1223 32.5325 35.1223 32.3669 35.1223 32.2012L27.5372 18.1183H15.6649V21.929H25.2287C26.383 21.929 27.3723 22.9231 27.3723 24.0828C27.3723 25.2426 26.383 26.2367 25.2287 26.2367H15.6649V31.7041C15.6649 32.8639 14.6755 33.858 13.5213 33.858C12.367 33.858 11.5426 32.6982 11.5426 31.5385V26.071H6.10106C4.94681 26.071 3.95745 25.0769 3.95745 23.9172C3.95745 22.7574 4.94681 21.7633 6.10106 21.7633H11.5426V16.2959C11.5426 15.4675 12.0372 14.9704 12.6968 14.4734C13.0266 14.3077 13.3564 14.142 13.6862 14.142H28.6915C29.0213 14.142 29.3511 14.3077 29.6809 14.4734C30.1755 14.6391 30.5053 14.9704 30.6702 15.4675L36.6064 27.2308L42.5426 15.9645C42.7074 15.4675 43.0372 14.8047 43.6968 14.4734C43.8617 14.4734 43.8617 14.3077 44.0266 14.3077C44.0266 14.3077 44.0266 14.3077 44.1915 14.3077H44.3564C44.3564 14.3077 44.3564 14.3077 44.5213 14.3077C44.6862 14.3077 44.6862 14.3077 44.8511 14.3077C45.016 14.3077 45.016 14.3077 45.1809 14.3077C45.3457 14.3077 45.3457 14.3077 45.5106 14.3077C45.6755 14.3077 45.6755 14.3077 45.8404 14.4734C46.0053 14.4734 46.0053 14.6391 46.1702 14.6391C46.3351 14.6391 46.3351 14.8047 46.5 14.8047C46.9947 15.1361 46.9947 15.3018 47.3245 15.7988L52.9308 27.2308L59.1968 15.4675C59.3617 15.1361 59.6915 14.9704 59.8564 14.8047C60.0213 14.4734 60.3511 14.3077 61.0106 14.3077H79.1489C79.6436 14.3077 79.8085 14.4734 80.1383 14.6391C80.7979 14.9704 81.2925 15.6331 81.2925 16.4615V22.2604H86.734C87.8883 22.2604 88.8777 23.2544 88.8777 24.4142C88.7128 25.0769 87.8883 25.9053 86.734 25.9053Z" fill="#403F42"/>
</svg>
