<svg width="56" height="34" viewBox="0 0 56 34" fill="none" xmlns="http://www.w3.org/2000/svg">
<path d="M47.8302 0C47.6809 0.468302 47.5445 0.898113 47.4016 1.33434C43.9856 11.977 40.5696 22.6132 37.1602 33.2559C37.0822 33.4932 36.9913 33.5702 36.738 33.5702C34.517 33.5574 32.3024 33.5574 30.0814 33.5702C29.8087 33.5702 29.6918 33.4996 29.6203 33.2302C27.763 26.2442 25.8861 19.2581 24.0158 12.2721C23.9898 12.1694 23.9573 12.0668 23.8989 11.8679C21.9506 19.1875 20.0218 26.4238 18.0865 33.6857C17.9696 33.6857 17.8527 33.6857 17.7358 33.6857C15.5278 33.6857 13.3197 33.6792 11.1117 33.6921C10.8389 33.6921 10.722 33.6215 10.6376 33.3585C7.81909 24.5057 4.9811 15.6657 2.14311 6.82566C1.46121 4.70226 0.779311 2.57245 0.103908 0.449057C0.0714369 0.346415 0.0389656 0.243774 0 0.109057C0.149368 0.109057 0.266265 0.109057 0.383161 0.109057C2.92891 0.109057 5.46817 0.115472 8.01392 0.102642C8.32564 0.102642 8.42955 0.192453 8.50748 0.487547C10.4428 7.89698 12.3846 15.3064 14.3263 22.7158C14.3523 22.8121 14.3848 22.9147 14.4367 23.0943C14.8524 21.4072 15.2485 19.8098 15.6447 18.2189C17.1189 12.2785 18.5931 6.33811 20.0608 0.397736C20.1127 0.186038 20.1971 0.109057 20.4309 0.115472C22.7884 0.121887 25.1523 0.121887 27.5097 0.115472C27.7435 0.115472 27.8149 0.198868 27.8669 0.410566C29.6983 7.82642 31.5361 15.2358 33.3805 22.6453C33.4065 22.7543 33.4389 22.8634 33.5299 22.9853C33.5818 22.8057 33.6338 22.6325 33.6792 22.4528C35.595 15.1396 37.5108 7.82 39.4202 0.506792C39.4981 0.205283 39.6215 0.109057 39.9397 0.102642C42.453 0.0833962 44.9598 0.0449057 47.473 0.00641509C47.5705 0 47.6809 0 47.8302 0Z" fill="#403F42"/>
<path d="M50.4019 22.8121C53.6296 22.8121 56 25.1664 56 28.374C56 31.6328 53.6426 33.9936 50.389 34C47.1613 34 44.7779 31.62 44.7909 28.3996C44.8039 25.2177 47.2198 22.8121 50.4019 22.8121Z" fill="#403F42"/>
</svg>
